<svg width="220" height="40" viewBox="0 0 220 40" fill="none" xmlns="http://www.w3.org/2000/svg">
<path d="M96.1275 10.4069C97.5199 10.3948 98.902 10.65 100.202 11.1591C101.412 11.6298 102.522 12.3342 103.47 13.2336C104.391 14.1179 105.126 15.1843 105.63 16.3675C106.156 17.607 106.421 18.9448 106.409 20.295C106.423 21.6166 106.169 22.9268 105.663 24.144C105.157 25.3611 104.411 26.459 103.47 27.3691C102.524 28.2796 101.414 28.9955 100.202 29.4774C98.9043 29.9962 97.5212 30.2562 96.1275 30.2434C94.7351 30.2561 93.3529 30.0009 92.0534 29.4912C90.8407 29.019 89.7305 28.3096 88.7854 27.403C87.8631 26.5087 87.1286 25.4332 86.6261 24.2415C86.1004 22.9971 85.8348 21.6549 85.846 20.3003C85.8348 18.9456 86.1004 17.6034 86.6261 16.359C87.1243 15.1729 87.8597 14.1056 88.7854 13.2251C89.7363 12.3316 90.8453 11.6305 92.0534 11.1591C93.353 10.65 94.7352 10.3948 96.1275 10.4069ZM96.1826 14.2507C95.3974 14.2463 94.6192 14.4026 93.8944 14.7105C93.1906 15.0072 92.5512 15.4425 92.0128 15.9914C91.4722 16.5434 91.0404 17.1958 90.7408 17.9133C90.4316 18.6706 90.2736 19.4831 90.2759 20.3032C90.2782 21.1234 90.4409 21.935 90.7543 22.6904C91.0597 23.4122 91.4958 24.0689 92.0399 24.6261C92.5778 25.1746 93.2131 25.6139 93.9121 25.9208C94.6279 26.2382 95.4009 26.3995 96.1816 26.3944C96.958 26.4003 97.7268 26.2389 98.4376 25.9208C99.8437 25.2977 100.954 24.138 101.53 22.6904C101.834 21.93 101.987 21.1159 101.98 20.295C101.987 19.4784 101.834 18.6687 101.53 17.9133C101.239 17.1971 100.815 16.5446 100.282 15.9914C99.7475 15.4361 99.1092 14.9959 98.4047 14.6968C97.7001 14.3978 96.9438 14.2461 96.1806 14.2507H96.1826Z" fill="#218F74"/>
<path d="M118.473 14.9604C119.437 14.9469 120.393 15.1332 121.283 15.5078C122.105 15.8588 122.841 16.3862 123.441 17.0531C124.056 17.7518 124.531 18.5647 124.839 19.4464C125.184 20.4396 125.353 21.4859 125.341 22.538C125.353 23.571 125.188 24.5985 124.852 25.5745C124.553 26.4418 124.087 27.2412 123.481 27.9273C122.89 28.5856 122.163 29.104 121.35 29.4455C120.463 29.812 119.513 29.9936 118.555 29.9793C117.522 29.9793 116.613 29.7833 115.827 29.3914C115.038 28.9981 114.361 28.4099 113.859 27.6817V35.1219H109.674V15.0967H113.854V17.2581C114.354 16.5328 115.025 15.9451 115.808 15.5484C116.638 15.1442 117.551 14.9428 118.473 14.9604ZM117.495 26.4777C118.004 26.485 118.509 26.3824 118.975 26.177C119.408 25.9835 119.795 25.6998 120.111 25.3445C120.44 24.9694 120.691 24.5313 120.848 24.0563C121.025 23.5232 121.112 22.9639 121.106 22.4017C121.106 21.2168 120.776 20.2456 120.115 19.488C119.454 18.7305 118.581 18.3521 117.495 18.3528C116.41 18.3528 115.533 18.7267 114.862 19.4745C114.192 20.2224 113.857 21.1981 113.859 22.4017C113.859 23.6234 114.193 24.6081 114.862 25.356C115.531 26.1038 116.408 26.4777 117.491 26.4777H117.495Z" fill="#218F74"/>
<path d="M134.638 14.96C135.949 14.96 137.084 15.1641 138.044 15.5724C138.967 15.955 139.776 16.561 140.397 17.334C141.031 18.1507 141.475 19.0945 141.698 20.0985C141.963 21.283 142.047 22.4998 141.947 23.7087H131.262C131.52 24.635 131.987 25.3569 132.661 25.8743C133.335 26.3917 134.151 26.6504 135.11 26.6504C136.567 26.6504 137.823 26.1323 138.876 25.0961L141.118 27.3292C140.355 28.1513 139.421 28.802 138.38 29.2368C137.31 29.6907 136.101 29.9176 134.753 29.9176C133.654 29.9346 132.562 29.7545 131.529 29.386C130.614 29.0545 129.78 28.5397 129.078 27.8742C128.388 27.2106 127.854 26.4063 127.514 25.5179C127.144 24.5472 126.961 23.5173 126.974 22.4808C126.96 21.4294 127.148 20.385 127.528 19.4022C127.875 18.5096 128.414 17.7013 129.108 17.0324C129.803 16.3699 130.627 15.8513 131.53 15.5071C132.521 15.1324 133.576 14.9467 134.638 14.96ZM137.961 21.2249C137.924 20.2446 137.615 19.4685 137.033 18.8965C136.451 18.3246 135.662 18.0386 134.667 18.0386C133.725 18.0386 132.95 18.3246 132.34 18.8965C131.731 19.4685 131.345 20.2446 131.182 21.2249H137.961Z" fill="#218F74"/>
<path d="M154.229 14.9599C154.99 14.9497 155.745 15.0849 156.455 15.3583C157.097 15.6085 157.676 15.9981 158.151 16.4993C158.628 17.0147 158.996 17.6229 159.231 18.2865C159.495 19.0363 159.625 19.8274 159.614 20.6228V29.9156H155.402V21.8631C155.402 20.9288 155.147 20.1912 154.636 19.6502C154.126 19.1092 153.414 18.839 152.502 18.8397C151.444 18.8572 150.619 19.219 150.027 19.9252C149.435 20.6315 149.138 21.534 149.138 22.6328V29.9187H144.926V15.1241H149.138V17.7092C149.667 16.7743 150.361 16.0869 151.219 15.647C152.078 15.207 153.081 14.978 154.229 14.9599Z" fill="#218F74"/>
<path d="M167.797 14.3199V18.4909H176.923V22.0823H167.797V26.3274H178.22V29.9187H163.531V10.7317H177.924V14.3199H167.797Z" fill="#218F74"/>
<path d="M189.972 10.7324C191.368 10.7169 192.754 10.9532 194.066 11.4298C195.259 11.864 196.35 12.5382 197.27 13.4106C198.163 14.2654 198.87 15.2946 199.346 16.4339C199.853 17.6682 200.106 18.9918 200.088 20.3256C200.103 21.6561 199.846 22.9757 199.332 24.2038C198.848 25.354 198.127 26.3902 197.216 27.2458C196.279 28.1135 195.177 28.7847 193.975 29.2193C192.639 29.6987 191.229 29.9352 189.81 29.9178H181.81V10.7355L189.972 10.7324ZM186.151 26.2731H190.083C190.846 26.2813 191.603 26.1367 192.309 25.8478C192.973 25.5736 193.572 25.1626 194.066 24.6416C194.575 24.0984 194.972 23.4609 195.234 22.7651C195.525 21.9942 195.669 21.1762 195.66 20.3527C195.669 19.524 195.52 18.7011 195.221 17.9278C194.949 17.2227 194.538 16.5794 194.011 16.0367C193.491 15.511 192.869 15.0961 192.183 14.817C191.454 14.5193 190.672 14.37 189.883 14.3781H186.145L186.151 26.2731Z" fill="#218F74"/>
<path d="M219.999 21.777C220.016 22.9768 219.812 24.169 219.397 25.2902C219.02 26.296 218.436 27.2059 217.687 27.9577C216.911 28.7138 215.989 29.2909 214.98 29.6504C213.831 30.0592 212.623 30.2597 211.408 30.2429C210.077 30.2429 208.877 30.0454 207.809 29.6504C206.793 29.2872 205.861 28.7108 205.072 27.9577C204.305 27.21 203.706 26.298 203.318 25.286C202.893 24.1672 202.684 22.9739 202.701 21.7727V20.1626H207.026V21.7727C207.026 23.2039 207.432 24.3235 208.244 25.1314C209.056 25.9393 210.11 26.3436 211.405 26.3443C212.701 26.3443 213.737 25.94 214.511 25.1314C215.286 24.3227 215.674 23.2032 215.675 21.7727V20.1626H219.999V21.777Z" fill="#218F74"/>
<path d="M207.923 16.4276V18.2114H203.603V16.4276H204.931V13.6731L204.141 14.3496L203.027 12.9769L205.255 11.0569H206.664V16.4276H207.923Z" fill="#218F74"/>
<path d="M213.798 13.3426V15.6004C213.785 16.2976 213.504 16.9615 213.016 17.4497C212.527 17.9379 211.871 18.2114 211.187 18.2114C210.503 18.2114 209.847 17.9379 209.358 17.4497C208.87 16.9615 208.589 16.2976 208.576 15.6004V13.3426C208.589 12.6455 208.87 11.9815 209.358 11.4933C209.847 11.0051 210.503 10.7317 211.187 10.7317C211.871 10.7317 212.527 11.0051 213.016 11.4933C213.504 11.9815 213.785 12.6455 213.798 13.3426ZM212.051 15.6004V13.3426C212.055 13.2237 212.035 13.1052 211.994 12.9941C211.952 12.8831 211.888 12.7818 211.807 12.6962C211.726 12.6107 211.629 12.5426 211.522 12.4962C211.414 12.4497 211.299 12.4257 211.182 12.4257C211.065 12.4257 210.95 12.4497 210.842 12.4962C210.735 12.5426 210.638 12.6107 210.557 12.6962C210.476 12.7818 210.412 12.8831 210.37 12.9941C210.328 13.1052 210.309 13.2237 210.313 13.3426V15.6004C210.309 15.7194 210.328 15.8379 210.37 15.9489C210.412 16.06 210.476 16.1613 210.557 16.2468C210.638 16.3324 210.735 16.4004 210.842 16.4469C210.95 16.4934 211.065 16.5173 211.182 16.5173C211.299 16.5173 211.414 16.4934 211.522 16.4469C211.629 16.4004 211.726 16.3324 211.807 16.2468C211.888 16.1613 211.952 16.06 211.994 15.9489C212.035 15.8379 212.055 15.7194 212.051 15.6004Z" fill="#218F74"/>
<path d="M219.673 16.4276V18.2114H215.35V16.4276H216.68V13.6731L215.893 14.3496L214.777 12.9769L217.005 11.0569H218.415V16.4276H219.673Z" fill="#218F74"/>
<path d="M62.7635 8.83118C49.1941 8.83118 38.1947 19.8005 38.1947 33.3329C38.1947 19.8005 27.1941 8.83118 13.6247 8.83118H0L7.99805 24.3623H13.6247C18.5791 24.3625 23.4178 25.8557 27.5064 28.6463C31.5949 31.4368 34.7425 35.3943 36.5363 40H39.8582C41.6515 35.3952 44.798 31.4383 48.8854 28.6478C52.9727 25.8573 57.8101 24.3636 62.7635 24.3623H68.3914L76.3895 8.83118H62.7635Z" fill="#218F74"/>
<path d="M32.5894 9.18429L37.9736 0L43.2787 9.18429L37.9736 13.7662L32.5894 9.18429Z" fill="#218F74"/>
</svg>
